<svg xmlns="http://www.w3.org/2000/svg" width="2048" height="2048" viewBox="0 0 2048 2048">
  <defs>
    <style>
      .cls-1 {
        fill: #fffb00;
      }

      .cls-1, .cls-2, .cls-3, .cls-4, .cls-5, .cls-6, .cls-7, .cls-8 {
        fill-rule: evenodd;
      }

      .cls-2 {
        fill: #dcf300;
      }

      .cls-3 {
        fill: #dcf200;
      }

      .cls-4 {
        fill: #41494c;
      }

      .cls-5 {
        fill: #fecf98;
      }

      .cls-6 {
        fill: #fff;
      }

      .cls-7 {
        fill: #fb7d3a;
      }
    </style>
  </defs>
  <path class="cls-1" d="M206.513,1258.93V850.183l73.98-2.774,35.141-315.343,407.819-66.583,56.411,373.6,295.926,6.473-2.78,620.511Z"/>
  <path class="cls-2" d="M719.754,464.558l60.11,374.528,294.076,8.323-2.78,530.811,767.55-67.51,3.7-465.151-338.46,2.774-62.88-338.462Z"/>
  <path class="cls-3" d="M669.817,845.559L667.968,981.5H777.089l4.624-137.789Z"/>
  <path class="cls-4" d="M1073.94,1377.3l-1.85,88.77,768.47-81.38-0.92-74.9Z"/>
  <path class="cls-4" d="M324.882,558.884l34.216-3.7,2.774,259.857-62.883,5.549Z"/>
  <path class="cls-4" d="M380.367,552.41l91.552-18.5,5.548,279.277-99.874,4.624Z"/>
  <path class="cls-4" d="M502.436,536.689l-6.474,270.03,253.384,4.624L703.108,505.248Z"/>
  <path class="cls-4" d="M764.143,505.248L809.456,803.02l661.2,2.774-49.94-263.556Z"/>
  <path class="cls-4" d="M1245.02,998.144V1145.18l462.38-24.97-0.93-135.937Z"/>
  <path class="cls-5" d="M1019.38,998.144l53.63,1.85V1158.13l-56.41-9.25Z"/>
  <path class="cls-5" d="M1196.01,999.994l0.92,147.966,48.09-2.78V998.144Z"/>
  <path class="cls-5" d="M1706.47,985.2l36.99-.925V1117.44l-36.99,2.77V985.2Z"/>
  <path class="cls-6" d="M1073.01,999.994h122.07l1.85,147.966-123.92,10.17V999.994Z"/>
  <path class="cls-6" d="M1743.46,984.273V1117.44l97.1-2.78,0.93-133.161Z"/>
  <path class="cls-7" d="M205.588,950.982l22.194-.925,1.85,104.493-24.044-3.69V950.982Z"/>
  <path class="cls-8" d="M967.59,1441.1l-0.925-131.31L917.653,1168.3l-38.84-16.65-53.636.93L747.5,1183.1l-39.765,88.77-4.624,103.58,7.4,46.23,29.592,96.18,73.056,66.58,136.864-6.47,64.731-32.37,40.69-83.23Z"/>
  <path class="cls-8" d="M404.411,1305.16l-1.849-103.57-27.743-101.72-14.8-12.02-51.787-2.78-48.087,28.67-19.42,72.13-5.549,83.23,7.4,26.82,18.495,86,41.615,39.76,109.121-3.69,48.088-25.9,25.893-65.66Z"/>
  <path class="cls-8" d="M1404.08,1428.16l5.54,28.67,73.06,48.08,129.47-11.09,59.18-25.9,35.14-55.48,2.78-14.8Z"/>
</svg>
